<svg xmlns="http://www.w3.org/2000/svg" width="412" height="77" viewBox="0 0 412 77"><defs><style>.a{fill:#466ded;}.b,.c{fill:#fff;}.b{font-size:24px;font-family:SFProText-Semibold, SF Pro Text;font-weight:600;letter-spacing:-0.024em;}</style></defs><g transform="translate(-2617 -1291)"><g transform="translate(2617 1291)"><rect class="a" width="412" height="77" rx="13" transform="translate(0)"/><text class="b" transform="translate(91 26.008)"><tspan x="0" y="23">Signed in with Apple</tspan></text></g><path class="c" d="M12.877,46.34a10.582,10.582,0,0,1-2.448-2.263,30.351,30.351,0,0,1-2.094-2.861,27.676,27.676,0,0,1-3.5-7.155A26.9,26.9,0,0,1,3.37,25.508,15.9,15.9,0,0,1,5.342,17.46a11.374,11.374,0,0,1,4.132-4.294,11.018,11.018,0,0,1,5.588-1.653,9.227,9.227,0,0,1,2.224.3c.571.157,1.259.413,2.105.728,1.082.413,1.673.669,1.869.728a4.609,4.609,0,0,0,1.574.335,4.709,4.709,0,0,0,1.269-.256c.285-.1.826-.275,1.594-.61.76-.275,1.362-.512,1.84-.689a16.421,16.421,0,0,1,2.066-.512,9.752,9.752,0,0,1,2.259-.1,13.4,13.4,0,0,1,3.817.826,10.3,10.3,0,0,1,4.835,3.857A9.684,9.684,0,0,0,39.089,17.2a12.047,12.047,0,0,0-2.42,2.961A10.034,10.034,0,0,0,35.4,25.12a10.155,10.155,0,0,0,1.653,5.628,10.489,10.489,0,0,0,3.018,3.022,7.735,7.735,0,0,0,1.653.885c-.236.738-.5,1.456-.8,2.164a27.92,27.92,0,0,1-2.46,4.545c-.85,1.24-1.519,2.164-2.027,2.774A10.97,10.97,0,0,1,34.12,46.3a5.169,5.169,0,0,1-2.857.858,6.335,6.335,0,0,1-2.035-.25c-.571-.187-1.133-.4-1.684-.636a13.656,13.656,0,0,0-1.781-.669,8.893,8.893,0,0,0-2.29-.289,9.183,9.183,0,0,0-2.283.285,14.182,14.182,0,0,0-1.785.64c-.826.344-1.368.571-1.682.669a8.8,8.8,0,0,1-1.948.344,5.411,5.411,0,0,1-2.924-.885ZM26.363,10.016a7.328,7.328,0,0,1-3.882.858,7.891,7.891,0,0,1,.531-4.008A10.835,10.835,0,0,1,24.98,3.56a10.643,10.643,0,0,1,3.207-2.479A9.125,9.125,0,0,1,31.906,0a8.945,8.945,0,0,1-.492,4.073,11.685,11.685,0,0,1-1.968,3.463,9.926,9.926,0,0,1-3.121,2.479Z" transform="translate(2638.629 1306.001)"/></g></svg>