<svg xmlns="http://www.w3.org/2000/svg" width="412" height="76" viewBox="0 0 412 76"><defs><style>.a{fill:#485a95;}.b,.c{fill:#fff;}.c{font-size:24px;font-family:SFProText-Semibold, SF Pro Text;font-weight:600;letter-spacing:-0.024em;}</style></defs><g transform="translate(-2617 -1379)"><rect class="a" width="412" height="76" rx="12" transform="translate(2617 1379)"/><path class="b" d="M49.073,24.537A24.536,24.536,0,1,0,20.7,48.775V31.629h-6.23V24.537H20.7V19.131c0-6.149,3.663-9.546,9.268-9.546a37.735,37.735,0,0,1,5.493.479V16.1H32.369c-3.048,0-4,1.891-4,3.832v4.6h6.805l-1.088,7.093H28.37V48.775A24.542,24.542,0,0,0,49.073,24.537Z" transform="translate(2637 1393)"/><text class="c" transform="translate(2708 1403)"><tspan x="0" y="23">Signed in with Facebook</tspan></text></g></svg>