<svg xmlns="http://www.w3.org/2000/svg" width="412" height="77" viewBox="0 0 412 77"><defs><style>.a{fill:#db4437;}.b,.c{fill:#fff;}.b{font-size:24px;font-family:SFProText-Semibold, SF Pro Text;font-weight:600;letter-spacing:-0.024em;}</style></defs><g transform="translate(-2617 -1466)"><rect class="a" width="412" height="77" rx="12" transform="translate(2617 1466)"/><text class="b" transform="translate(2708 1490)"><tspan x="0" y="23">Signed in with Google</tspan></text><path class="c" d="M47.723,25.382c0,13.838-9.476,23.686-23.47,23.686a24.253,24.253,0,0,1,0-48.505A23.323,23.323,0,0,1,40.516,6.909l-6.6,6.347C25.28,4.924,9.222,11.183,9.222,24.815A15.192,15.192,0,0,0,24.253,40.13c9.6,0,13.2-6.885,13.769-10.454H24.253V21.334H47.342A21.261,21.261,0,0,1,47.723,25.382Z" transform="translate(2638 1479.438)"/></g></svg>