<svg xmlns="http://www.w3.org/2000/svg" width="50" height="41" viewBox="0 0 50 41"><defs><style>.a{fill:#fff;}.b{fill:none;stroke:#ff8500;stroke-width:2px;}</style></defs><g transform="translate(0)"><rect class="a" width="50" height="41" rx="13" transform="translate(0)"/></g><g transform="translate(11.636 7.942)"><path class="b" d="M22.07,3.938h-.061a7,7,0,0,0-5.842,3.2,7,7,0,0,0-5.842-3.2h-.061a6.953,6.953,0,0,0-6.888,6.949,14.97,14.97,0,0,0,2.94,8.161,51.514,51.514,0,0,0,9.852,9.489,51.514,51.514,0,0,0,9.852-9.489,14.97,14.97,0,0,0,2.94-8.161A6.953,6.953,0,0,0,22.07,3.938Z" transform="translate(-3.375 -3.938)"/></g></svg>