<svg xmlns="http://www.w3.org/2000/svg" width="50" height="41" viewBox="0 0 50 41"><defs><style>.a{fill:#fff;}.b{fill:#2b6d74;}</style></defs><g transform="translate(-450 -206)"><g transform="translate(450 206)"><rect class="a" width="50" height="41" rx="13" transform="translate(0)"/></g></g><path class="b" d="M.823,17.465h.823V11.518H.823A.823.823,0,0,1,0,10.694V8.728A.823.823,0,0,1,.823,7.9H5.434a.823.823,0,0,1,.823.823v8.737h.823a.823.823,0,0,1,.823.823v1.967a.823.823,0,0,1-.823.823H.823A.823.823,0,0,1,0,20.255V18.288A.823.823,0,0,1,.823,17.465ZM3.952,0A2.964,2.964,0,1,0,6.916,2.964,2.964,2.964,0,0,0,3.952,0Z" transform="translate(21 10)"/></svg>