<svg xmlns="http://www.w3.org/2000/svg" xmlns:xlink="http://www.w3.org/1999/xlink" width="149.816" height="149.799" viewBox="0 0 149.816 149.799"><defs><style>.a{fill:none;}.b{clip-path:url(#a);}.c{fill:#aeaeb2;}</style><clipPath id="a"><path class="a" d="M0,0H149.816V149.8H0Z" transform="translate(0 0.201)"/></clipPath></defs><g transform="translate(0 -0.201)"><path class="a" d="M0,0H149.816V149.8H0Z" transform="translate(0 0.201)"/><g class="b"><path class="c" d="M96.028,149.8c-24.973,0-54.524,0-84.35-.026a13.206,13.206,0,0,1-4.473-.64,10.765,10.765,0,0,1-4.949-3.445,11.066,11.066,0,0,1-2.166-5.667,16.593,16.593,0,0,1-.071-1.851q0-17.138,0-34.276v-.734c0-29.948,0-60.915-.017-91.372C0,8.136.966,5.444,3.046,3.317A10.35,10.35,0,0,1,9.837.088c.679-.05,1.285-.074,1.851-.074H45.882c30.295,0,61.621,0,92.475-.014h.009a11.04,11.04,0,0,1,8.755,3.686,10.057,10.057,0,0,1,2.1,3.679,13.592,13.592,0,0,1,.6,4.214c-.018,16.054-.016,32.362-.014,48.134q0,7.6,0,15.2,0,7.754,0,15.507c0,15.67,0,31.874.013,47.827a13.561,13.561,0,0,1-.6,4.216,9.98,9.98,0,0,1-2.106,3.674,10.392,10.392,0,0,1-7.2,3.6c-.536.038-1.1.057-1.71.057H96.028Zm-83.947-7.134H137.736l.367,0,.367,0c.278,0,.492-.006.692-.019a3.745,3.745,0,0,0,2.468-.978,3.684,3.684,0,0,0,1.009-2.438c.025-.339.023-.686.022-1.022,0-.087,0-.174,0-.262q0-63.041,0-126.083c0-.095,0-.189,0-.284v-.007c0-.28,0-.568-.012-.85a3.784,3.784,0,0,0-1.014-2.579,3.877,3.877,0,0,0-2.617-.983c-.175-.009-.361-.012-.6-.012l-.341,0-.34,0H11.366C8.412,7.189,7.192,8.39,7.153,11.3c0,.336,0,.677,0,1.006,0,.141,0,.28,0,.42V137.384c0,.147,0,.294,0,.441v.007c0,.368-.006.748.01,1.12a3.442,3.442,0,0,0,3.639,3.7c.175.008.361.012.6.012l.334,0h.007Z" transform="translate(0 0.201)"/></g></g><path class="c" d="M4.329,106c-.252,0-.584,0-.916-.03a3.741,3.741,0,0,1-2.374-1,3.652,3.652,0,0,1-1.014-2.34C0,102.289,0,101.942,0,101.607V101.6c0-.081,0-.162,0-.242Q0,53.032,0,4.706q0-.121,0-.242c0-.385,0-.783.036-1.17a3.605,3.605,0,0,1,1.009-2.27,3.7,3.7,0,0,1,2.3-.991C3.678,0,4,0,4.282,0H54.6q30.749,0,61.5,0h.418a10.925,10.925,0,0,1,1.428.069,3.36,3.36,0,0,1,2.989,2.947A9.936,9.936,0,0,1,121,4.429c0,30.325,0,62.078,0,97.074v.1a10.707,10.707,0,0,1-.041,1.166,3.409,3.409,0,0,1-3.238,3.181c-.395.039-.8.044-1.135.044h-.714q-27.759,0-55.517,0H5.122l-.4,0ZM32.06,65.164h0c-.068.041-.124.073-.168.1a.787.787,0,0,0-.171.113C24,73.026,15.787,81.172,7.66,89.247c-.254.253-.513.545-.517.8-.03,2.275-.027,4.593-.025,6.835q0,.951,0,1.9H113.872c0-.757,0-1.512-.009-2.241v-.015c-.011-1.845-.021-3.588.034-5.355a3.05,3.05,0,0,0-1.059-2.457C101.2,77.189,89.4,65.474,77.981,54.146l0,0-9.24-9.17c-.275-.273-.568-.538-.743-.7l-.129-.117-7.828,7.774-.018.018L44.438,67.424c.806.8,1.641,1.62,2.449,2.416l.012.012c2.247,2.214,4.571,4.5,6.854,6.819a3.275,3.275,0,0,0,2.532,1.072h.078c1.659-.026,3.411-.038,5.357-.038,1.659,0,3.431.009,5.745.028,1.872.015,3.037.75,3.562,2.248a3.548,3.548,0,0,1-.338,3.286,3.818,3.818,0,0,1-3.164,1.5c-1.243.015-2.568.022-4.3.022l-2.253,0h-.19q-1.213,0-2.425,0c-1.65,0-2.989.007-4.215.021h-.081a5.05,5.05,0,0,1-3.823-1.634c-4.37-4.389-8.84-8.816-13.163-13.1q-1.968-1.949-3.935-3.9c-.247-.245-.5-.48-.753-.707l-.008-.007C32.274,65.361,32.165,65.262,32.06,65.164ZM7.185,7.156V79.664c.181-.172.343-.323.49-.462l.038-.035c.312-.293.558-.524.8-.763q5.937-5.889,11.873-11.781l.338-.335,8.119-8.057a4.748,4.748,0,0,1,3.181-1.737c.989,0,2.015.567,3.23,1.785.876.878,1.713,1.759,2.6,2.691.38.4.772.812,1.166,1.222.189-.178.359-.335.514-.479.291-.27.541-.5.779-.738q7.374-7.317,14.747-14.636l.259-.257L64.366,37.1c1.258-1.248,2.261-1.805,3.253-1.805s2,.56,3.265,1.814l13.933,13.83.753.747q13.439,13.34,26.878,26.679c.253.252.517.5.822.779.155.144.319.3.5.463V7.156Z" transform="translate(15 14.799)"/><path class="c" d="M23.411,7c-6.5,0-12.993.015-19.49-.008C1.487,6.979-.016,5.587,0,3.466A3.4,3.4,0,0,1,2.988.068a6.728,6.728,0,0,1,1-.064q19.49-.005,38.98,0c2.916,0,4.7,2.239,3.8,4.689-.552,1.5-1.839,2.291-3.865,2.295q-9.028.017-18.057,0H23.411" transform="translate(15 129.799)"/><path class="c" d="M7,3.527A3.464,3.464,0,0,1,3.514,7a3.5,3.5,0,1,1,.053-7A3.468,3.468,0,0,1,7,3.527" transform="translate(63 129.799)"/><path class="c" d="M14.584,29l-.28,0A14.568,14.568,0,0,1,4.1,24.58,14.236,14.236,0,0,1,0,14.343,14.558,14.558,0,0,1,4.332,4.2,14.272,14.272,0,0,1,14.437,0h.189a14.476,14.476,0,0,1,5.7,1.243A14.624,14.624,0,0,1,24.95,4.477,14.231,14.231,0,0,1,29,14.737a14.587,14.587,0,0,1-4.35,10.1A14.246,14.246,0,0,1,14.584,29ZM14.5,7.264h0a7.236,7.236,0,1,0-.009,14.472h.072a7.236,7.236,0,1,0-.052-14.472H14.5Z" transform="translate(28 27.799)"/></svg>