<svg xmlns="http://www.w3.org/2000/svg" width="140.243" height="72.874" viewBox="0 0 140.243 72.874"><defs><style>.a{fill:#bcbcbc;}.b{fill:#fff;}</style></defs><path class="a" d="M70.1,72.874H3.184C.577,72.873,0,72.294,0,69.657q0-10.5,0-21.007c0-2.393.493-2.936,2.813-3.138a9.1,9.1,0,0,0-.032-18.153C.53,27.165,0,26.6,0,24.311Q0,13.686,0,3.061C0,.652.639,0,2.974,0H137.3c2.274,0,2.941.667,2.943,2.97q.008,10.686,0,21.372c0,2.25-.546,2.824-2.815,3.019a9.1,9.1,0,0,0,.029,18.153c2.248.195,2.785.773,2.786,3.045q.006,10.686,0,21.372c0,2.275-.685,2.942-2.974,2.943Z"/><path class="b" d="M0,18.282c8.246,1.98,11.254,8.392,11.289,13.393.046,6.5-3.8,11.187-11.24,13.617V63.562H99.413c.435-1.556.985-2.091,2.154-2.156,1.308-.072,1.881.406,2.58,2.132h26.94V45.274c-7.151-2.112-11.188-6.89-11.256-13.265-.07-6.648,3.782-11.367,11.237-13.739V0H104.032c-.208,1.295-.836,2.077-2.131,2.153s-1.856-.4-2.577-2.131H0Z" transform="translate(5.563 4.657)"/></svg>