<svg xmlns="http://www.w3.org/2000/svg" xmlns:xlink="http://www.w3.org/1999/xlink" width="140.243" height="72.874" viewBox="0 0 140.243 72.874"><defs><style>.a{fill:none;}.b{clip-path:url(#a);}.c{fill:#2b6d74;}</style><clipPath id="a"><path class="a" d="M0,0H140.243V72.874H0Z"/></clipPath></defs><g transform="translate(0)"><path class="a" d="M0,0H140.243V72.874H0Z"/><g class="b"><path class="c" d="M70.1,72.874H3.183c-1.407,0-2.127-.174-2.568-.619S0,71.08,0,69.656C0,63.45,0,56.1,0,48.649a3.47,3.47,0,0,1,.537-2.391c.385-.429,1.023-.638,2.276-.748a9.1,9.1,0,0,0-.032-18.153C.524,27.164,0,26.595,0,24.312c0-7.051,0-14.2,0-21.251C0,.658.642,0,2.974,0H137.3c2.281,0,2.941.666,2.943,2.969.005,7.091.005,14.281,0,21.372a3.211,3.211,0,0,1-.557,2.28,3.347,3.347,0,0,1-2.258.739,9.126,9.126,0,0,0-6.1,15.258,9.435,9.435,0,0,0,6.125,2.895,3.273,3.273,0,0,1,2.236.744,3.289,3.289,0,0,1,.551,2.3c0,5.889.006,13.641,0,21.372a3.115,3.115,0,0,1-.629,2.324,3.194,3.194,0,0,1-2.345.618ZM4.563,4.678V22.939A16.3,16.3,0,0,1,9.8,25.163,13.46,13.46,0,0,1,13.287,28.5a13.655,13.655,0,0,1,2.566,7.829,12.589,12.589,0,0,1-2.811,8.336,17.787,17.787,0,0,1-8.429,5.281V68.218h99.364c.433-1.547.976-2.091,2.154-2.156.083,0,.164-.007.239-.007,1.131,0,1.678.5,2.341,2.138h26.94V49.93a16.808,16.808,0,0,1-8.284-5.033,12.583,12.583,0,0,1-2.971-8.231,12.787,12.787,0,0,1,2.8-8.473,17.424,17.424,0,0,1,8.44-5.266V4.657H108.6c-.222,1.378-.92,2.082-2.132,2.152-.085,0-.167.007-.244.007-1.1,0-1.649-.5-2.332-2.138Z" transform="translate(0 0)"/></g></g></svg>