<svg xmlns="http://www.w3.org/2000/svg" width="32.903" height="32.903" viewBox="0 0 32.903 32.903"><defs><style>.a{fill:#f44336;}</style></defs><path class="a" d="M16.451,32.9A16.451,16.451,0,1,0,0,16.451,16.457,16.457,0,0,0,16.451,32.9Zm5.872-17.626h2.355V12.922h2.355v2.355h2.335v2.355H27.034v2.355H24.678V17.633H22.323Zm-5.055-4.909L15.039,12.53c-2.852-2.787-8.4-.757-8.4,3.914,0,6.335,8.992,6.768,9.772,1.645h-4.65V15.264h7.755a7.706,7.706,0,0,1-7.755,9.413h0a8.218,8.218,0,1,1,5.507-14.311Z"/></svg>