<svg xmlns="http://www.w3.org/2000/svg" width="364.108" height="133.277" viewBox="0 0 364.108 133.277"><defs><style>.a{fill:#fdb913;}.b{fill:#f26522;font-size:72px;font-family:Pacifico-Regular, Pacifico;}.c{letter-spacing:-0.01em;}.d{letter-spacing:-0.02em;}</style></defs><g transform="translate(-0.032 -0.003)"><path class="a" d="M294.69,343.57a.66.66,0,0,1-.76.54.63.63,0,0,1-.53-.46l-7-40.82c-.52-3-3.75-5-7.18-4.42s-5.81,3.53-5.29,6.54l1.9,41.78a.66.66,0,0,1-.69.63.69.69,0,0,1-.58-.41l-12.19-40c-.52-3-3.75-5-7.18-4.43s-5.81,3.53-5.29,6.55l7,40.83a.67.67,0,0,1-1.25.34l-22-49.61a.58.58,0,0,1-.05-.14c-2.66-15.76,9.78-31.15,27.7-34.2h0c17.93-3,34.84,7.34,37.58,23.09v.14Z" transform="translate(-233.21 -233.14)"/><path class="a" d="M254.54,233.23h0c-5.57-.37-10,.47-9.74,1.86q7.72,27.61,15.46,55.26h0l6.08.4h0l-1.29-54.34C264.84,235,260.1,233.59,254.54,233.23Z" transform="translate(-233.21 -233.14)"/><text class="b" transform="translate(58.14 100.28)"><tspan x="0" y="0">eal</tspan><tspan class="c" y="0">s</tspan><tspan class="d" y="0">f</tspan><tspan y="0">o</tspan><tspan class="d" y="0">r</tspan><tspan class="c" y="0">.</tspan><tspan y="0">me</tspan></text></g></svg>