<svg xmlns="http://www.w3.org/2000/svg" width="46.848" height="46.848" viewBox="0 0 46.848 46.848"><defs><style>.a{fill:#2b6d74;}</style></defs><path class="a" d="M26.8,3.375A23.424,23.424,0,1,0,50.223,26.8,23.42,23.42,0,0,0,26.8,3.375Zm5.935,31.9L26.8,29.344l-5.935,5.935a1.8,1.8,0,1,1-2.545-2.545L24.254,26.8l-5.935-5.935a1.8,1.8,0,0,1,2.545-2.545L26.8,24.254l5.935-5.935a1.8,1.8,0,0,1,2.545,2.545L29.344,26.8l5.935,5.935a1.808,1.808,0,0,1,0,2.545A1.788,1.788,0,0,1,32.734,35.279Z" transform="translate(-3.375 -3.375)"/></svg>