<svg xmlns="http://www.w3.org/2000/svg" width="23.678" height="23.678" viewBox="0 0 23.678 23.678"><defs><style>.a{fill:#2f787f;}</style></defs><path class="a" d="M14.339,2.5A11.839,11.839,0,1,0,26.178,14.339,11.85,11.85,0,0,0,14.339,2.5Zm2.542,6.156a14.185,14.185,0,0,1-2.542.224A14.185,14.185,0,0,1,11.8,8.656c.648-2.941,1.72-4.686,2.542-4.686S16.233,5.715,16.881,8.656Zm-.025-4.362a10.3,10.3,0,0,1,4.711,2.642,11.9,11.9,0,0,1-3.24,1.4A13.833,13.833,0,0,0,16.856,4.295Zm-5.608,9.3a24.3,24.3,0,0,1,.3-3.489,17.4,17.4,0,0,0,2.816.249A17.657,17.657,0,0,0,17.18,10.1a34.453,34.453,0,0,1,.3,3.489Zm6.181,1.5a28.763,28.763,0,0,1-.274,3.489,17.4,17.4,0,0,0-2.816-.249,17.657,17.657,0,0,0-2.816.249,28.763,28.763,0,0,1-.274-3.489ZM10.351,8.332a11.9,11.9,0,0,1-3.24-1.4,10.526,10.526,0,0,1,4.711-2.642A13.833,13.833,0,0,0,10.351,8.332ZM10.1,9.8a27.128,27.128,0,0,0-.324,3.813H4.045A10.42,10.42,0,0,1,6.164,8.058,13.217,13.217,0,0,0,10.1,9.8Zm-.349,5.284a31.89,31.89,0,0,0,.324,3.813,13.3,13.3,0,0,0-3.963,1.745A10.393,10.393,0,0,1,4.02,15.087Zm.6,5.259a13.568,13.568,0,0,0,1.471,4.038,10.3,10.3,0,0,1-4.711-2.642A11.9,11.9,0,0,1,10.351,20.346Zm1.446-.324a14.518,14.518,0,0,1,5.085,0c-.648,2.941-1.72,4.686-2.542,4.686S12.445,22.963,11.8,20.022Zm6.53.324a11.22,11.22,0,0,1,3.24,1.421,10.526,10.526,0,0,1-4.711,2.642A14.288,14.288,0,0,0,18.327,20.346Zm.249-1.471a27.128,27.128,0,0,0,.324-3.813h5.733a10.42,10.42,0,0,1-2.119,5.558A13.506,13.506,0,0,0,18.576,18.875Zm.349-5.284A31.889,31.889,0,0,0,18.6,9.778a13.3,13.3,0,0,0,3.963-1.745,10.343,10.343,0,0,1,2.119,5.558Z" transform="translate(-2.5 -2.5)"/></svg>