<svg xmlns="http://www.w3.org/2000/svg" width="241" height="52" viewBox="0 0 241 52"><defs><style>.a{fill:#db4437;}.b,.c{fill:#fff;}.b{font-size:16px;font-family:SFProText-Semibold, SF Pro Text;font-weight:600;letter-spacing:-0.024em;}</style></defs><g transform="translate(-2753 -204)"><rect class="a" width="241" height="52" rx="12" transform="translate(2753 204)"/><text class="b" transform="translate(2807 221.929)"><tspan x="0" y="15">Continue with Google</tspan></text><path class="c" d="M32.384,17.4c0,9.39-6.43,16.072-15.926,16.072a16.457,16.457,0,1,1,0-32.914A15.826,15.826,0,0,1,27.493,4.869L23.014,9.176C17.154,3.522,6.258,7.769,6.258,17.02a10.309,10.309,0,0,0,10.2,10.392c6.517,0,8.959-4.672,9.343-7.094H16.457v-5.66H32.125A14.427,14.427,0,0,1,32.384,17.4Z" transform="translate(2765 213.51)"/></g></svg>