<svg xmlns="http://www.w3.org/2000/svg" width="23.678" height="23.678" viewBox="0 0 23.678 23.678"><defs><style>.a{fill:#2f787f;}</style></defs><path class="a" d="M11.839,0C8.623,0,8.221.015,6.958.071A8.73,8.73,0,0,0,4.084.622a5.8,5.8,0,0,0-2.1,1.365,5.776,5.776,0,0,0-1.365,2.1A8.7,8.7,0,0,0,.071,6.958C.012,8.221,0,8.623,0,11.839s.015,3.618.071,4.881a8.735,8.735,0,0,0,.551,2.874,5.806,5.806,0,0,0,1.365,2.1,5.789,5.789,0,0,0,2.1,1.365,8.741,8.741,0,0,0,2.874.551c1.263.059,1.664.071,4.881.071s3.618-.015,4.881-.071a8.761,8.761,0,0,0,2.874-.551,6.05,6.05,0,0,0,3.463-3.463,8.735,8.735,0,0,0,.551-2.874c.059-1.263.071-1.664.071-4.881s-.015-3.618-.071-4.881a8.755,8.755,0,0,0-.551-2.874,5.811,5.811,0,0,0-1.365-2.1,5.768,5.768,0,0,0-2.1-1.365A8.71,8.71,0,0,0,16.72.071C15.457.012,15.055,0,11.839,0Zm0,2.131c3.16,0,3.537.016,4.785.07a6.523,6.523,0,0,1,2.2.409,3.9,3.9,0,0,1,2.247,2.246,6.536,6.536,0,0,1,.407,2.2c.056,1.249.069,1.624.069,4.785s-.015,3.537-.073,4.785a6.663,6.663,0,0,1-.415,2.2,3.759,3.759,0,0,1-.887,1.363,3.693,3.693,0,0,1-1.361.884,6.584,6.584,0,0,1-2.2.407c-1.257.056-1.627.069-4.794.069s-3.538-.015-4.794-.073a6.713,6.713,0,0,1-2.206-.415,3.666,3.666,0,0,1-1.36-.887,3.6,3.6,0,0,1-.888-1.361A6.719,6.719,0,0,1,2.147,16.6c-.044-1.243-.06-1.627-.06-4.779s.016-3.538.06-4.8a6.711,6.711,0,0,1,.414-2.2,3.509,3.509,0,0,1,.888-1.362,3.5,3.5,0,0,1,1.36-.886A6.553,6.553,0,0,1,7,2.161C8.259,2.116,8.629,2.1,11.795,2.1l.044.03Zm0,3.629a6.079,6.079,0,1,0,6.079,6.079A6.079,6.079,0,0,0,11.839,5.76Zm0,10.026a3.946,3.946,0,1,1,3.946-3.946A3.945,3.945,0,0,1,11.839,15.785ZM19.58,5.52A1.421,1.421,0,1,1,18.159,4.1,1.422,1.422,0,0,1,19.58,5.52Z"/></svg>