<svg xmlns="http://www.w3.org/2000/svg" width="77.644" height="51.012" viewBox="0 0 77.644 51.012"><defs><style>.a{fill:#fff;}</style></defs><path class="a" d="M1.4,25.563a27.517,27.517,0,0,0,8.25,1.457c2.752,0,4.707-1.4,4.707-3.285C14.36,17.893.791,20.083.791,9.192.791,3.895,5.07,0,11.976,0A25.683,25.683,0,0,1,20.41,1.462L18.818,7.428A21.844,21.844,0,0,0,11.976,6.15c-2.812,0-3.851,1.338-3.851,3.042,0,5.475,13.5,3.161,13.5,14.419,0,4.811-3.846,9.558-11.976,9.558A28.079,28.079,0,0,1,0,31.4Z" transform="translate(18.646 12.169)"/><path class="a" d="M4.214,18.685H0V13.754H4.214V9.736C4.214,3.29,9.469,0,14.664,0a19.728,19.728,0,0,1,5.681.916l-1.4,5.843a14.03,14.03,0,0,0-3.851-.61c-2.324,0-3.787,1.338-3.787,3.587v4.018H18.7l-1.343,4.931H11.3V45.338H4.214Z" transform="translate(43.256 0)"/><path class="a" d="M5.614,10.3c-.679-.043-1.363-.035-2.038-.113a4.167,4.167,0,0,1-2.064-.819A3.744,3.744,0,0,1,.064,6.852,4.612,4.612,0,0,1,.456,4.06,3.622,3.622,0,0,1,3,2.042a9.786,9.786,0,0,1,4.467-.007.363.363,0,0,0,.444-.163,4.718,4.718,0,0,1,4.3-1.856A8.636,8.636,0,0,1,16.177,1.38a12.584,12.584,0,0,1,2.444,1.972c.045.047.091.092.135.136a2.462,2.462,0,0,1,2.827-.219,3.8,3.8,0,0,1,1.9,2.029A23.35,23.35,0,0,1,24.61,8.456c.562,1.939,1,3.909,1.374,5.89.269,1.408.494,2.824.738,4.236a2.9,2.9,0,0,1,.055.368.556.556,0,0,1-.389.591.588.588,0,0,1-.644-.27c-.349-.521-.689-1.049-1.047-1.563a56.459,56.459,0,0,0-5.855-7.244,15.646,15.646,0,0,0-4.594-3.368A10.139,10.139,0,0,0,9.682,6.062c-.294.007-.587.054-.88.09a.572.572,0,0,1-.666-.441A.553.553,0,0,1,8.6,5.069,3.868,3.868,0,0,1,9.028,5a10.614,10.614,0,0,1,4.8.726A15.448,15.448,0,0,1,19.1,9.17a51.215,51.215,0,0,1,5.662,6.718,6.249,6.249,0,0,0,.5.632c-.054-.312-.1-.624-.164-.933-.3-1.449-.57-2.905-.916-4.344-.328-1.36-.72-2.707-1.121-4.048a7.814,7.814,0,0,0-.894-2.042,2.557,2.557,0,0,0-1.685-1.1,1.047,1.047,0,0,0-.88.175.193.193,0,0,0-.068.279,2.654,2.654,0,0,1,.132.539l-.054.012c-.011.008-.018.02-.03.024-.706.251-.7.246-1.19-.328a10.9,10.9,0,0,0-4.264-3.179,5.782,5.782,0,0,0-2.692-.454A3.432,3.432,0,0,0,8.4,3.22c-.034.077-.07.153-.112.244a6.674,6.674,0,0,0-2.332-.549,9.523,9.523,0,0,0-2.508.15A2.823,2.823,0,0,0,1.112,5.978,2.968,2.968,0,0,0,1.96,8.3a3.107,3.107,0,0,0,1.918.825c.65.063,1.309.04,1.961.085A10.4,10.4,0,0,1,7.219,9.4a2.1,2.1,0,0,1,.715.312.826.826,0,0,1,.19,1.264,2.89,2.89,0,0,1-1.052.773,3.2,3.2,0,0,0-1.534,1.465,1.853,1.853,0,0,0-.2,1.024,1.324,1.324,0,0,0,1.116,1.194,9.079,9.079,0,0,0,1.634.2,11.434,11.434,0,0,0,3.821-.565c.522-.157,1.041-.323,1.564-.474a2.361,2.361,0,0,1,1.129-.072,1.263,1.263,0,0,1,.986,1.766,2.793,2.793,0,0,1-.457.7,1.687,1.687,0,0,0-.4.835.7.7,0,0,0,.494.867,3.809,3.809,0,0,0,1.135.18,15.967,15.967,0,0,0,1.606-.149,9,9,0,0,1,5.479.91,5.736,5.736,0,0,1,.854.594.546.546,0,0,1-.7.835,6.191,6.191,0,0,0-3.337-1.271,10.031,10.031,0,0,0-2.627.089,6.305,6.305,0,0,1-2.309,0,1.965,1.965,0,0,1-1.429-3.008,5.319,5.319,0,0,1,.45-.639,2.155,2.155,0,0,0,.223-.342c.067-.149.007-.277-.161-.279a2.407,2.407,0,0,0-.657.063c-.767.209-1.523.456-2.291.66a11.531,11.531,0,0,1-4.624.308,4.258,4.258,0,0,1-1.2-.346,2.39,2.39,0,0,1-1.332-2.845,3.972,3.972,0,0,1,2.1-2.587c.206-.114.412-.226.619-.34,0-.029,0-.057,0-.085C6.548,10.387,6.082,10.335,5.614,10.3Z" transform="translate(0 0.161)"/><path class="a" d="M18.76,5.116c.383-.137.769-.266,1.148-.414.551-.214,1.087-.47,1.645-.655a3.618,3.618,0,0,1,1.927-.11,3.267,3.267,0,0,1,2.069,1.454,4,4,0,0,1,.719,2.34,3.131,3.131,0,0,1-1.259,2.519A8.478,8.478,0,0,1,21.5,11.888a.315.315,0,0,0-.289.291,4.078,4.078,0,0,1-2.7,3.033,7.509,7.509,0,0,1-3.621.374,10.94,10.94,0,0,1-2.65-.659l-.156-.058a2.132,2.132,0,0,1-2.144,1.205,3.313,3.313,0,0,1-2.245-.9A20.381,20.381,0,0,1,5.64,13.1c-1.157-1.322-2.224-2.713-3.251-4.133C1.659,7.957.959,6.925.246,5.9a2.535,2.535,0,0,1-.178-.27.481.481,0,0,1,.088-.606A.51.51,0,0,1,.763,5c.466.283.929.573,1.4.848A49.325,49.325,0,0,0,9.441,9.412a13.641,13.641,0,0,0,4.857.972,8.8,8.8,0,0,0,3.972-.856c.229-.112.442-.258.659-.393a.5.5,0,0,1,.688.1.479.479,0,0,1-.13.676,3.315,3.315,0,0,1-.311.21,9.206,9.206,0,0,1-4.047,1.183,13.454,13.454,0,0,1-5.417-.784A44.551,44.551,0,0,1,2.78,7.306a5.549,5.549,0,0,0-.625-.314c.158.225.309.454.474.673C3.4,8.7,4.147,9.744,4.95,10.749c.76.951,1.564,1.867,2.374,2.777A6.834,6.834,0,0,0,8.781,14.8a2.221,2.221,0,0,0,1.73.249.9.9,0,0,0,.629-.46.167.167,0,0,0-.049-.245,2.371,2.371,0,0,1-.3-.375l.038-.029a.083.083,0,0,1,.015-.029c.462-.456.459-.45,1.058-.177a9.513,9.513,0,0,0,4.527.944,5.011,5.011,0,0,0,2.285-.626A2.966,2.966,0,0,0,20.33,11.3c0-.074,0-.147,0-.233a5.767,5.767,0,0,0,2.038-.421,8.25,8.25,0,0,0,1.919-1.034,2.444,2.444,0,0,0,.762-3.145,2.589,2.589,0,0,0-1.524-1.519,2.7,2.7,0,0,0-1.813.052c-.535.189-1.045.447-1.575.65A8.931,8.931,0,0,1,18.979,6a1.807,1.807,0,0,1-.677.015.719.719,0,0,1-.616-.925A2.5,2.5,0,0,1,18.23,4.1,2.764,2.764,0,0,0,18.9,2.39a1.609,1.609,0,0,0-.217-.882A1.155,1.155,0,0,0,17.361.977,7.888,7.888,0,0,0,16,1.418,9.913,9.913,0,0,0,13.2,3.26c-.353.314-.7.634-1.057.944a2.04,2.04,0,0,1-.861.469A1.1,1.1,0,0,1,9.859,3.644a2.38,2.38,0,0,1,.1-.719,1.46,1.46,0,0,0,.011-.8.61.61,0,0,0-.708-.5,3.349,3.349,0,0,0-.96.273,13.493,13.493,0,0,0-1.209.7A7.8,7.8,0,0,1,2.446,3.882a4.964,4.964,0,0,1-.891-.154A.473.473,0,0,1,1.8,2.814,5.388,5.388,0,0,0,4.894,2.6,8.707,8.707,0,0,0,6.929,1.565,5.449,5.449,0,0,1,8.746.722a1.8,1.8,0,0,1,1.51.219,1.8,1.8,0,0,1,.723,1.626,4.447,4.447,0,0,1-.119.668,2.01,2.01,0,0,0-.049.351c0,.142.1.22.229.161a2.092,2.092,0,0,0,.495-.29c.527-.445,1.031-.916,1.56-1.356A9.988,9.988,0,0,1,16.621.167,3.716,3.716,0,0,1,17.694,0a2.086,2.086,0,0,1,2.1,1.752,3.438,3.438,0,0,1-.7,2.8c-.12.166-.241.329-.362.493.011.023.022.045.034.066" transform="translate(51.376 34.937)"/></svg>